<svg width="29" height="26" xmlns="http://www.w3.org/2000/svg" xmlns:xlink="http://www.w3.org/1999/xlink" overflow="hidden"><defs><clipPath id="clip0"><rect x="565" y="347" width="29" height="26"/></clipPath><clipPath id="clip1"><rect x="566" y="348" width="27" height="24"/></clipPath><clipPath id="clip2"><rect x="566" y="348" width="27" height="24"/></clipPath></defs><g clip-path="url(#clip0)" transform="translate(-565 -347)"><g clip-path="url(#clip1)"><g clip-path="url(#clip2)"><g><path d="M35.9893 6.12694 41.0735 6.12694C41.7991 6.12694 42.4683 6.2777 43.0792 6.58021 43.691 6.88271 44.1715 7.29513 44.5227 7.81551 44.8738 8.3359 45.0498 8.90492 45.0498 9.5216 45.0498 10.1752 44.8894 10.7413 44.5684 11.2199 44.2474 11.6975 43.8272 12.0642 43.3068 12.3181L43.3068 12.464C43.9848 12.7052 44.5227 13.0894 44.9224 13.6166 45.3212 14.1428 45.5216 14.7751 45.5216 15.5133 45.5216 16.2283 45.331 16.8605 44.9497 17.411 44.5611 17.968 44.0272 18.4077 43.406 18.6823 42.7592 18.979 42.0413 19.1269 41.2544 19.1269L35.9893 19.1269 35.9893 6.12694ZM40.8916 11.4281C41.4247 11.4281 41.8507 11.2802 42.1717 10.9835 42.4927 10.6869 42.6532 10.3143 42.6532 9.8669 42.6532 9.43114 42.4985 9.06541 42.1902 8.76777 41.8808 8.47208 41.4723 8.32326 40.9646 8.32326L38.4405 8.32326 38.4405 11.4281 40.8916 11.4281ZM41.164 16.8936C41.7573 16.8936 42.2203 16.7389 42.553 16.4306 42.8856 16.1222 43.052 15.7195 43.052 15.2235 43.052 14.7274 42.8827 14.3218 42.5442 14.0066 42.2048 13.6915 41.7204 13.5349 41.091 13.5349L38.4405 13.5349 38.4405 16.8936 41.164 16.8936ZM53.7379 19.4177C52.4666 19.4177 51.3139 19.1181 50.279 18.5189 49.2579 17.9338 48.414 17.0835 47.8366 16.058 47.2433 15.0173 46.9466 13.8734 46.9466 12.6264 46.9466 11.3804 47.2433 10.2365 47.8366 9.19478 48.4139 8.1698 49.2574 7.31987 50.278 6.73486 51.3149 6.13569 52.4666 5.8361 53.7388 5.8361 55.0092 5.8361 56.1628 6.13569 57.1977 6.73486 58.2184 7.32013 59.062 8.17041 59.6391 9.19575 60.2325 10.2365 60.5291 11.3804 60.5291 12.6264 60.5291 13.8734 60.2325 15.0173 59.6391 16.058 59.062 17.0834 58.2184 17.9337 57.1977 18.5189 56.1628 19.1181 55.0092 19.4177 53.7388 19.4177ZM53.7379 17.093C54.5065 17.1008 55.2638 16.9069 55.9342 16.5308 56.5948 16.1609 57.1388 15.6137 57.5051 14.9511 57.8864 14.2732 58.077 13.4979 58.077 12.6264 58.077 11.7549 57.8864 10.9806 57.5051 10.3027 57.1388 9.64004 56.5948 9.09293 55.9342 8.72303 55.2639 8.3465 54.5066 8.15232 53.7379 8.15984 52.9715 8.15139 52.2164 8.34568 51.5493 8.72303 50.8929 9.0951 50.3525 9.6419 49.9882 10.3027 49.6069 10.9806 49.4162 11.7549 49.4162 12.6274 49.4162 13.4979 49.6069 14.2732 49.9882 14.9511 50.3525 15.6119 50.8929 16.1587 51.5493 16.5308 52.2165 16.9078 52.9715 17.1017 53.7379 17.093ZM68.6715 19.4177C67.4002 19.4177 66.2476 19.1181 65.2126 18.5189 64.1919 17.9337 63.3483 17.0834 62.7712 16.058 62.1778 15.0173 61.8812 13.8734 61.8812 12.6264 61.8812 11.3804 62.1778 10.2365 62.7702 9.19478 63.3478 8.16967 64.1917 7.31973 65.2126 6.73486 66.2476 6.13569 67.4011 5.8361 68.6715 5.8361 69.9428 5.8361 71.0954 6.13569 72.1303 6.73486 73.1511 7.32013 73.9946 8.17041 74.5718 9.19575 75.1651 10.2365 75.4618 11.3804 75.4618 12.6264 75.4618 13.8734 75.1651 15.0173 74.5727 16.058 73.9953 17.0835 73.1514 17.9338 72.1303 18.5189 71.0954 19.1181 69.9418 19.4177 68.6715 19.4177ZM68.6715 17.093C69.4405 17.101 70.1981 16.9071 70.8688 16.5308 71.529 16.1607 72.0727 15.6136 72.4387 14.9511 72.82 14.2732 73.0106 13.4979 73.0106 12.6264 73.0106 11.7549 72.82 10.9806 72.4387 10.3027 72.0727 9.64017 71.529 9.09307 70.8688 8.72303 70.1982 8.34634 69.4406 8.15215 68.6715 8.15984 67.9051 8.15139 67.1501 8.34568 66.4829 8.72303 65.8265 9.0951 65.2861 9.6419 64.9218 10.3027 64.5405 10.9806 64.3498 11.7549 64.3498 12.6274 64.3498 13.4979 64.5405 14.2732 64.9218 14.9511 65.2864 15.612 65.8271 16.1588 66.4839 16.5308 67.1508 16.9076 67.9055 17.1015 68.6715 17.093ZM77.6493 6.12791 80.1005 6.12791 80.1005 11.7014 80.2464 11.7014 85.0028 6.12791 87.9627 6.12791 87.9627 6.27284 83.2617 11.6459 88.4539 18.9819 88.4539 19.1269 85.4581 19.1269 81.5732 13.5894 80.1025 15.3139 80.1025 19.1269 77.6513 19.1269 77.6513 6.12694ZM91.2173 5.8361 94.3766 5.8361 97.8257 14.9696 97.9716 14.9696 101.42 5.8361 104.598 5.8361 104.598 18.836 102.165 18.836 102.165 12.427 102.311 10.2667 102.165 10.2667 98.8597 18.836 96.9532 18.836 93.6305 10.2667 93.4856 10.2667 93.6315 12.427 93.6315 18.837 91.2163 18.837 91.2163 5.8361ZM111.449 5.8361 114.264 5.8361 119.148 18.836 116.443 18.836 115.353 15.7312 110.378 15.7312 109.289 18.836 106.584 18.836 111.449 5.8361ZM114.555 13.4804 113.411 10.2122 112.938 8.65008 112.793 8.65008 112.322 10.2122 111.159 13.4804 114.554 13.4804ZM121.151 5.8361 125.89 5.8361C126.737 5.8361 127.491 6.01119 128.15 6.36232 128.81 6.71346 129.321 7.20078 129.684 7.82427 130.048 8.44679 130.229 9.15295 130.229 9.93986 130.229 10.7744 129.966 11.5156 129.439 12.1634 128.919 12.8068 128.23 13.2939 127.451 13.5709L127.433 13.6973 130.919 18.6911 130.919 18.837 128.104 18.837 124.746 13.9522 123.602 13.9522 123.602 18.836 121.151 18.836 121.151 5.8361ZM125.871 11.7014C126.428 11.7014 126.883 11.5312 127.233 11.1927 127.584 10.8532 127.76 10.4243 127.76 9.90289 127.76 9.40682 127.593 8.98371 127.26 8.63257 126.927 8.28143 126.476 8.10537 125.908 8.10537L123.602 8.10537 123.602 11.7004 125.871 11.7004ZM132.904 5.8361 135.355 5.8361 135.355 11.4096 135.501 11.4096 140.257 5.8361 143.217 5.8361 143.217 5.98201 138.514 11.3561 143.708 18.6911 143.708 18.837 140.712 18.837 136.825 13.2985 135.355 15.0231 135.355 18.836 132.904 18.836 132.904 5.8361Z" fill="#242A45" transform="matrix(1.01338 0 0 1 566 348)"/><path d="M24.3171 12.1585C24.3171 18.8735 18.8735 24.3171 12.1585 24.3171 5.44357 24.3171-1.72783e-15 18.8735-1.72783e-15 12.1585-5.1835e-15 5.44357 5.44357-3.45567e-15 12.1585-3.45567e-15 18.8735-6.91133e-15 24.3171 5.44357 24.3171 12.1585Z" fill="#5267DF" fill-rule="evenodd" transform="matrix(1.01338 0 0 1 566 348)"/><path d="M8.75415 8.75415 8.75415 18.481 12.1975 15.135 15.6388 18.481 15.6388 8.75415C15.6388 7.67976 14.7678 6.80879 13.6934 6.80879L10.6995 6.80879C9.62512 6.80879 8.75415 7.67976 8.75415 8.75415Z" fill="#FFFFFF" fill-rule="evenodd" transform="matrix(1.01338 0 0 1 566 348)"/></g></g></g></g></svg>