<svg width="515" height="110" xmlns="http://www.w3.org/2000/svg" xmlns:xlink="http://www.w3.org/1999/xlink" overflow="hidden"><defs><clipPath id="clip0"><rect x="495" y="403" width="515" height="110"/></clipPath><clipPath id="clip1"><rect x="496" y="403" width="513" height="109"/></clipPath><clipPath id="clip2"><rect x="496" y="403" width="513" height="109"/></clipPath><clipPath id="clip3"><rect x="364" y="403" width="645" height="109"/></clipPath></defs><g clip-path="url(#clip0)" transform="translate(-495 -403)"><g clip-path="url(#clip1)"><g clip-path="url(#clip2)"><g clip-path="url(#clip3)"><path d="M161.108 27.4275 183.868 27.4275C187.116 27.4275 190.112 28.1025 192.846 29.4566 195.585 30.8108 197.736 32.657 199.308 34.9866 200.88 37.3161 201.668 39.8633 201.668 42.6239 201.668 45.55 200.95 48.0842 199.513 50.2265 198.076 52.3644 196.195 54.006 193.865 55.1425L193.865 55.7956C196.9 56.8755 199.308 58.5954 201.098 60.9554 202.883 63.3111 203.78 66.1413 203.78 69.4462 203.78 72.6466 202.926 75.4769 201.22 77.9414 199.48 80.4347 197.09 82.4032 194.309 83.6325 191.414 84.9605 188.2 85.6224 184.678 85.6224L161.108 85.6224 161.108 27.4275ZM183.053 51.1583C185.44 51.1583 187.347 50.4965 188.784 49.1684 190.221 47.8404 190.939 46.1727 190.939 44.1697 190.939 42.219 190.247 40.5818 188.866 39.2494 187.482 37.9257 185.653 37.2595 183.38 37.2595L172.081 37.2595 172.081 51.1583 183.053 51.1583ZM184.273 75.625C186.929 75.625 189.001 74.9326 190.491 73.5523 191.98 72.172 192.724 70.3693 192.724 68.1487 192.724 65.928 191.967 64.1123 190.451 62.7015 188.932 61.2907 186.763 60.5897 183.946 60.5897L172.081 60.5897 172.081 75.625 184.273 75.625ZM240.56 86.9243C234.869 86.9243 229.709 85.5832 225.077 82.9009 220.505 80.2814 216.728 76.4753 214.143 71.8846 211.487 67.2256 210.159 62.1049 210.159 56.5228 210.159 50.945 211.487 45.8243 214.143 41.1609 216.727 36.5725 220.503 32.7677 225.072 30.149 229.714 27.4667 234.869 26.1256 240.565 26.1256 246.251 26.1256 251.416 27.4667 256.048 30.149 260.618 32.769 264.394 36.5753 266.978 41.1653 269.634 45.8243 270.962 50.945 270.962 56.5228 270.962 62.1049 269.634 67.2256 266.978 71.8846 264.394 76.4745 260.618 80.281 256.048 82.9009 251.416 85.5832 246.251 86.9243 240.565 86.9243ZM240.56 76.5176C244.002 76.5524 247.391 75.685 250.392 74.0008 253.349 72.3449 255.785 69.8956 257.424 66.9295 259.131 63.8946 259.985 60.4242 259.985 56.5228 259.985 52.6213 259.131 49.1553 257.424 46.1204 255.785 43.1542 253.349 40.705 250.392 39.0491 247.392 37.3636 244.002 36.4943 240.56 36.528 237.13 36.4901 233.75 37.3599 230.763 39.0491 227.825 40.7147 225.406 43.1625 223.775 46.1204 222.068 49.1553 221.214 52.6213 221.214 56.5271 221.214 60.4242 222.068 63.8946 223.775 66.9295 225.406 69.8873 227.825 72.3353 230.763 74.0008 233.75 75.6885 237.13 76.5568 240.56 76.5176ZM307.411 86.9243C301.72 86.9243 296.561 85.5832 291.928 82.9009 287.358 80.281 283.582 76.4745 280.998 71.8846 278.342 67.2256 277.014 62.1049 277.014 56.5228 277.014 50.945 278.342 45.8243 280.994 41.1609 283.58 36.5719 287.357 32.7671 291.928 30.149 296.561 27.4667 301.725 26.1256 307.411 26.1256 313.102 26.1256 318.262 27.4667 322.895 30.149 327.465 32.769 331.241 36.5753 333.824 41.1653 336.481 45.8243 337.809 50.945 337.809 56.5228 337.809 62.1049 336.481 67.2256 333.829 71.8846 331.244 76.4753 327.466 80.2814 322.895 82.9009 318.262 85.5832 313.098 86.9243 307.411 86.9243ZM307.411 76.5176C310.854 76.5533 314.245 75.6855 317.248 74.0008 320.203 72.3444 322.637 69.8952 324.276 66.9295 325.982 63.8946 326.836 60.4242 326.836 56.5228 326.836 52.6213 325.982 49.1553 324.276 46.1204 322.637 43.1547 320.203 40.7056 317.248 39.0491 314.246 37.3628 310.854 36.4935 307.411 36.528 303.981 36.4901 300.601 37.3599 297.614 39.0491 294.676 40.7147 292.257 43.1625 290.626 46.1204 288.919 49.1553 288.065 52.6213 288.065 56.5271 288.065 60.4242 288.919 63.8946 290.626 66.9295 292.258 69.8882 294.679 72.3357 297.619 74.0008 300.604 75.6877 303.982 76.5559 307.411 76.5176ZM347.601 27.4319 358.574 27.4319 358.574 52.3819 359.227 52.3819 380.52 27.4319 393.77 27.4319 393.77 28.0807 372.725 52.1337 395.969 84.9736 395.969 85.6224 382.557 85.6224 365.166 60.8335 358.583 68.5536 358.583 85.6224 347.61 85.6224 347.61 27.4275ZM408.339 26.1256 422.482 26.1256 437.922 67.0122 438.575 67.0122 454.011 26.1256 468.236 26.1256 468.236 84.3204 457.346 84.3204 457.346 55.6301 457.999 45.9593 457.346 45.9593 442.551 84.3204 434.016 84.3204 419.142 45.9593 418.493 45.9593 419.146 55.6301 419.146 84.3248 408.335 84.3248 408.335 26.1256ZM498.908 26.1256 511.509 26.1256 533.372 84.3204 521.263 84.3204 516.386 70.4216 494.114 70.4216 489.237 84.3204 477.128 84.3204 498.908 26.1256ZM512.811 60.3458 507.69 45.7155 505.574 38.7225 504.925 38.7225 502.814 45.7155 497.61 60.3458 512.807 60.3458ZM542.337 26.1256 563.551 26.1256C567.344 26.1256 570.718 26.9094 573.671 28.4813 576.623 30.0532 578.913 32.2347 580.537 35.0257 582.166 37.8125 582.976 40.9737 582.976 44.4963 582.976 48.2322 581.8 51.5502 579.44 54.4501 577.111 57.3301 574.032 59.5107 570.54 60.7508L570.462 61.3168 586.067 83.6716 586.067 84.3248 573.466 84.3248 558.431 62.4576 553.31 62.4576 553.31 84.3204 542.337 84.3204 542.337 26.1256ZM563.469 52.3819C565.964 52.3819 567.997 51.6199 569.565 50.1046 571.136 48.5849 571.925 46.6647 571.925 44.3308 571.925 42.1101 571.176 40.216 569.687 38.6441 568.197 37.0723 566.177 36.2841 563.634 36.2841L553.31 36.2841 553.31 52.3775 563.469 52.3775ZM594.95 26.1256 605.923 26.1256 605.923 51.0756 606.576 51.0756 627.868 26.1256 641.118 26.1256 641.118 26.7788 620.065 50.8361 643.317 83.6716 643.317 84.3248 629.906 84.3248 612.506 59.5316 605.923 67.2517 605.923 84.3204 594.95 84.3204 594.95 26.1256Z" fill="#FFFFFF" transform="matrix(1 0 0 1.00132 364.568 403)"/><path d="M108.857 54.4284C108.857 84.4883 84.4883 108.857 54.4284 108.857 24.3684 108.857-7.73474e-15 84.4883-7.73474e-15 54.4284-2.32042e-14 24.3684 24.3684-1.54695e-14 54.4284-1.54695e-14 84.4883-3.09389e-14 108.857 24.3684 108.857 54.4284Z" fill="#FFFFFF" fill-rule="evenodd" transform="matrix(1 0 0 1.00132 364.568 403)"/><path d="M39.1884 39.1884 39.1884 82.7311 54.6025 67.7524 70.0079 82.7311 70.0079 39.1884C70.0079 34.3788 66.1091 30.4799 61.2994 30.4799L47.897 30.4799C43.0874 30.4799 39.1884 34.3788 39.1884 39.1884Z" fill="#FFFFFF" fill-rule="evenodd" transform="matrix(1 0 0 1.00132 364.568 403)"/></g></g></g></g></svg>